<?xml version="1.0" encoding="UTF-8" standalone="no"?>
<!-- Created with Inkscape (http://www.inkscape.org/) -->
<svg
   xmlns:svg="http://www.w3.org/2000/svg"
   xmlns="http://www.w3.org/2000/svg"
   version="1.0"
   width="744.09448"
   height="220.03937"
   id="svg2413">
  <defs
     id="defs2415" />
  <g
     transform="translate(-791.63408,-344.59066)"
     id="layer1">
    <g
       transform="translate(17.716531,17.782294)"
       id="g7426">
      <path
         d="M 1026.7936,411.0765 C 1026.7936,400.97439 1022.6254,398.62505 999.13219,398.62505 L 988.14346,398.62505 L 978.21567,398.60992 C 952.97943,398.60992 942.97586,400.95926 942.97586,417.51816 L 942.97586,448.76414 L 942.97586,451.41661 C 942.97586,467.97551 952.97943,470.31729 978.21567,470.31729 L 984.20264,470.30966 L 999.13219,470.22632 C 1022.6254,470.22632 1026.7936,467.87703 1026.7936,457.77492 L 1026.7936,456.65333 L 1044.7545,456.65333 L 1044.7545,459.85903 C 1044.7545,476.4255 1034.9783,485.17862 994.81246,485.17862 L 985.71833,485.24683 L 976.69998,485.26959 C 946.38614,485.26959 925.01488,480.73766 925.01488,451.0377 L 925.01488,420.17064 L 925.01488,417.88951 C 925.01488,388.19711 946.38614,383.66518 976.69998,383.66518 L 993.90309,383.66518 L 994.81246,383.68037 C 1034.9783,383.68037 1044.7545,392.42592 1044.7545,408.99239 L 1044.7545,412.19809 L 1026.7936,412.19809 L 1026.7936,411.0765"
         style="fill:#231f20;fill-rule:nonzero;stroke:none"
         id="path7349" />
      <path
         d="M 1235.2769,485.14073 C 1204.281,485.14073 1194.2017,469.40785 1194.2017,451.4545 L 1194.2017,383.5894 L 1212.2384,383.5894 L 1212.2384,447.46823 C 1212.2384,461.10943 1215.6487,470.18086 1247.0993,470.18086 L 1262.7109,470.18086 C 1294.0857,470.18086 1297.5718,461.10943 1297.5718,447.46823 L 1297.5718,383.5894 L 1315.5327,383.5894 L 1315.5327,451.4545 C 1315.5327,469.40785 1305.5292,485.14073 1274.4575,485.14073 L 1235.2769,485.14073"
         style="fill:#231f20;fill-rule:nonzero;stroke:none"
         id="path7351" />
      <path
         d="M 791.63408,470.22632 L 865.14508,470.22632 C 889.92663,470.22632 896.5957,469.17294 896.5957,455.69087 L 896.5957,454.92543 C 896.5957,446.26323 894.4737,441.33726 875.22443,441.33726 L 824.90351,441.33726 C 801.63765,441.33726 792.6193,433.69816 792.6193,414.69143 L 792.6193,408.99996 C 792.6193,392.43349 802.31968,383.68794 842.56131,383.68794 L 911.22211,383.68794 L 911.22211,398.63267 L 838.1658,398.63267 C 814.6726,398.63267 810.58022,400.98196 810.58022,411.08407 L 810.58022,414.69143 C 810.58022,422.01221 812.62638,426.38495 829.45058,426.38495 L 872.57196,426.38495 C 896.9746,426.38495 914.55662,428.8404 914.55662,455.88033 L 914.55662,456.25923 C 914.55662,484.3374 888.41094,485.17862 868.78277,485.17862 L 791.63408,485.17862 L 791.63408,470.22632"
         style="fill:#231f20;fill-rule:nonzero;stroke:none"
         id="path7353" />
      <path
         d="M 1059.5325,416.78305 L 1059.381,417.20747 C 1059.381,416.58603 1059.381,415.97215 1059.381,415.35833 L 1059.381,344.59066 L 1077.3419,344.59066 L 1077.3419,387.64388 C 1083.3288,385.0293 1090.9073,383.54394 1100.4562,383.54394 L 1139.3336,383.54394 C 1170.3295,383.54394 1180.4089,399.26168 1180.4089,417.20747 L 1180.4089,485.17862 L 1162.3721,485.17862 L 1162.3721,422.14858 C 1161.9932,402.29306 1154.2632,398.70846 1119.857,398.50381 C 1086.2087,398.70089 1078.0997,402.17182 1077.3419,420.89819 L 1077.3419,485.17862 L 1059.381,485.17862 L 1059.381,422.99737 C 1059.381,418.04107 1059.4567,416.99526 1059.5325,416.78305"
         style="fill:#231f20;fill-rule:nonzero;stroke:none"
         id="path7355" />
      <path
         d="M 1330.8412,399.32227 L 1330.8412,377.49632 C 1330.8412,353.98798 1345.3161,344.59066 1363.5044,344.59066 L 1394.8792,344.59066 L 1394.8792,359.5354 L 1364.8685,359.5354 C 1353.1977,359.5354 1348.8022,365.97706 1348.8022,374.07847 L 1348.8022,383.66518 L 1376.8424,383.66518 L 1376.8424,398.60992 L 1348.8022,398.60992 L 1348.8022,485.17862 L 1330.8412,485.17862 L 1330.8412,399.32227"
         style="fill:#231f20;fill-rule:nonzero;stroke:none"
         id="path7357" />
      <path
         d="M 1481.9557,438.16188 L 1446.0338,438.26799 L 1420.9491,438.26799 C 1399.8809,438.26799 1394.8034,441.30693 1394.8034,452.6216 L 1394.8034,455.66055 C 1394.8034,465.7399 1397.9106,470.20362 1420.1912,470.20362 L 1441.7898,470.20362 L 1481.9557,470.12784 L 1481.9557,438.16188 z M 1447.8526,485.15586 L 1408.8235,485.14829 C 1383.5873,485.14829 1376.8424,473.90946 1376.8424,455.28164 L 1376.8424,448.82479 C 1376.8424,425.90751 1393.4393,423.32325 1421.7069,423.32325 L 1447.8526,423.32325 L 1482.0315,423.27779 L 1481.9557,417.5106 C 1481.9557,400.95163 1471.9521,398.60992 1446.7916,398.60992 L 1394.8792,398.60992 L 1394.8792,383.65761 L 1448.2315,383.65761 C 1478.5453,383.65761 1499.9924,388.19711 1499.9924,417.89707 L 1499.9924,485.14829 L 1447.8526,485.15586"
         style="fill:#231f20;fill-rule:evenodd;stroke:none"
         id="path7359" />
      <path
         d="M 791.86142,529.06544 L 1500.2955,529.06544 L 1500.2955,514.14346 L 791.86142,514.14346 L 791.86142,529.06544 z "
         style="fill:#f9ad0b;fill-rule:nonzero;stroke:none"
         id="path7361" />
    </g>
  </g>
</svg>
